<svg width="555" height="578" viewBox="0 0 555 578" fill="none" xmlns="http://www.w3.org/2000/svg">
<path d="M382 141H335V129C335 124.582 338.582 121 343 121H374C378.418 121 382 124.582 382 129V141Z" fill="black"/>
<path d="M295.082 160H409.082C414.605 160 419.082 164.477 419.082 170V432.264C419.082 437.787 414.605 442.264 409.082 442.264H295.082" stroke="black" stroke-width="35"/>
<path d="M135.083 160.219C155.233 160.219 175.187 163.889 193.804 171.02C212.421 178.151 229.336 188.602 243.585 201.778C257.834 214.954 269.136 230.596 276.848 247.811C284.559 265.026 288.528 283.477 288.528 302.11C288.528 320.743 284.559 339.194 276.847 356.409C269.136 373.624 257.833 389.266 243.584 402.442C229.336 415.617 212.42 426.069 193.803 433.2C175.186 440.33 155.233 444 135.082 444" stroke="black" stroke-width="35" stroke-linejoin="round"/>
</svg>
