<svg width="248" height="248" viewBox="0 0 248 248" fill="none" xmlns="http://www.w3.org/2000/svg">
<g clip-path="url(#clip0_4818_8843)">
<path d="M0 0C81.84 0 163.68 0 248 0C248 81.84 248 163.68 248 248C166.16 248 84.32 248 0 248C0 166.16 0 84.32 0 0Z" fill="#FEFEFE"/>
<path d="M92.5607 21.9636C92.7268 21.9641 92.8929 21.9646 93.0642 21.9653C97.618 21.9881 103.844 22.7117 107.289 26.1564C107.694 26.0852 108.097 26.0014 108.499 25.9142C113.487 25.5204 116.915 26.7526 120.775 29.9708C123.652 32.6499 125.854 36.3789 126.269 40.3331C126.332 43.6951 125.478 46.5486 123.273 49.1642C123.144 49.3204 123.015 49.4766 122.881 49.6374C121.757 50.8745 120.406 51.5926 118.914 52.3126C118.76 52.3957 118.606 52.4788 118.448 52.5645C116.805 53.3422 114.873 53.0973 113.101 53.0392C113.151 53.3434 113.2 53.6476 113.252 53.9607C113.318 54.37 113.383 54.7793 113.449 55.1888C113.482 55.3879 113.514 55.587 113.548 55.7924C113.596 56.0919 113.596 56.0919 113.645 56.3978C113.674 56.5778 113.703 56.758 113.734 56.9435C114.024 59.0936 114.109 61.2062 114.11 63.3757C114.111 63.6879 114.112 64.0001 114.113 64.322C114.115 64.9793 114.115 65.6368 114.115 66.2941C114.115 67.1284 114.118 67.9625 114.122 68.7969C114.126 69.6033 114.126 70.4101 114.126 71.2166C114.128 71.6595 114.128 71.6595 114.131 72.1112C114.126 73.9564 113.941 75.691 113.585 77.5001C113.53 77.8198 113.476 78.1397 113.422 78.4594C112.433 83.7631 110.142 89.2292 105.76 92.6068C102.919 94.5085 100.718 95.1706 97.3589 94.9376C97.3412 95.4014 97.3412 95.4014 97.323 95.8744C97.3049 96.2786 97.2865 96.6828 97.2683 97.0873C97.2608 97.2909 97.2533 97.4949 97.2455 97.7048C97.2315 97.9977 97.2315 97.9977 97.2172 98.2963C97.2094 98.4762 97.2019 98.6564 97.1939 98.8419C97.1167 99.297 97.1167 99.297 96.6323 99.7814C95.5291 99.6469 95.5291 99.6469 95.1792 99.297C95.0748 98.0994 95.0278 96.9935 95.4972 95.8763C95.9058 95.422 95.9058 95.422 96.6323 95.1798C96.6323 95.02 96.6323 94.8604 96.6323 94.6954C96.3909 94.6731 96.1491 94.6506 95.9002 94.6274C94.8597 94.477 94.0177 94.0861 93.0906 93.6056C92.9218 93.5189 92.753 93.4322 92.5793 93.3428C85.328 89.5276 81.3404 83.3548 78.9073 75.7198C78.8424 75.5081 78.7775 75.2964 78.7104 75.0782C78.4707 75.0782 78.2309 75.0782 77.9839 75.0782C77.9865 75.3589 77.989 75.6394 77.9916 75.9283C78.0006 76.9881 78.0062 78.0479 78.0105 79.108C78.0129 79.5631 78.0163 80.0181 78.0204 80.4732C78.0573 84.5265 77.7029 88.2801 76.7882 92.2435C76.7272 92.5174 76.6661 92.7916 76.6032 93.074C76.2384 94.6857 75.8204 96.2689 75.3198 97.8439C75.4562 97.8754 75.5925 97.9068 75.733 97.9393C76.3154 98.0933 76.8657 98.288 77.4295 98.4997C77.7598 98.6222 77.7598 98.6223 78.0965 98.7475C78.3292 98.8339 78.5617 98.9204 78.8015 99.0095C84.2553 101.015 90.2579 102.537 95.9058 100.266C96.8154 99.8104 97.5805 99.2861 98.3429 98.616C99.0813 98.1633 99.6601 98.2408 100.507 98.3282C101.473 98.683 101.89 98.9565 102.493 99.8015C103.301 100.621 104.028 100.623 105.151 100.66C105.664 100.663 106.177 100.66 106.69 100.652C109.88 100.608 112.765 100.811 115.765 101.961C116.084 102.073 116.403 102.185 116.722 102.296C121.76 104.119 126.012 107.576 129.328 111.724C129.444 111.869 129.561 112.014 129.681 112.164C130.235 112.874 130.603 113.432 130.781 114.313C131.024 114.187 131.267 114.061 131.518 113.931C137.666 110.782 137.666 110.782 139.5 111.164C140.211 111.664 140.211 111.664 140.71 112.375C140.849 113.483 140.711 114.281 140.226 115.281C140.353 115.229 140.479 115.176 140.609 115.122C142.099 114.559 143.482 114.336 145.07 114.555C145.827 114.918 145.827 114.918 146.281 115.524C146.446 116.186 146.489 116.772 146.523 117.461C147.148 116.454 147.689 115.415 148.225 114.359C148.417 113.982 148.61 113.605 148.802 113.228C148.952 112.934 148.952 112.934 149.105 112.634C150.712 109.481 152.337 106.342 154.051 103.246C154.594 102.263 155.126 101.274 155.653 100.283C155.808 99.993 155.962 99.7031 156.117 99.4132C156.414 98.8555 156.71 98.2968 157.006 97.7378C157.208 97.359 157.208 97.359 157.414 96.9727C157.532 96.7492 157.651 96.5256 157.773 96.2953C158.588 94.9245 159.291 94.2517 160.802 93.7325C160.97 93.6722 161.138 93.6119 161.312 93.5499C163.292 92.863 165.318 92.3472 167.354 91.8558C168.005 91.6979 168.655 91.5332 169.304 91.3683C174.136 90.1697 174.136 90.1697 176.07 90.5782C177.175 91.3363 177.175 91.3363 177.523 92.0314C177.717 93.9945 177.155 95.2527 176.267 96.9812C176.137 97.242 176.008 97.5029 175.874 97.7714C175.599 98.3232 175.322 98.8736 175.044 99.4234C174.619 100.261 174.2 101.101 173.782 101.942C173.129 103.257 172.471 104.57 171.811 105.882C171.347 106.804 170.885 107.728 170.424 108.652C170.207 109.085 169.99 109.519 169.773 109.953C169.878 110.074 169.983 110.195 170.091 110.319C171.106 111.628 171.463 112.656 171.384 114.31C171.156 116.039 170.535 117.7 170.001 119.353C169.527 120.833 169.131 122.325 168.759 123.834C168.698 124.077 168.638 124.319 168.576 124.569C168.307 125.664 168.053 126.757 167.84 127.863C167.378 130.247 166.65 132.207 165.482 134.334C164.987 135.234 164.503 136.14 164.021 137.047C163.765 137.531 163.505 138.013 163.243 138.494C162.227 140.399 161.701 142.064 161.751 144.238C161.755 144.488 161.759 144.738 161.764 144.996C161.769 145.18 161.775 145.365 161.781 145.555C161.975 145.585 162.168 145.616 162.367 145.647C162.992 145.797 162.992 145.797 163.294 146.266C163.846 148.518 163.777 150.879 163.779 153.184C163.779 153.359 163.779 153.533 163.78 153.713C163.767 162.013 162.573 172.377 156.527 178.667C156.343 178.85 156.158 179.031 155.968 179.219C155.71 179.481 155.71 179.481 155.447 179.748C153.066 182.026 150.264 183.18 146.985 183.111C146.832 183.105 146.68 183.1 146.523 183.094C146.843 183.733 147.162 184.373 147.492 185.031C148.619 184.678 149.686 184.23 150.761 183.745C153.763 182.416 156.821 181.429 159.988 180.586C160.591 180.424 161.193 180.259 161.794 180.093C162.198 179.983 162.603 179.873 163.007 179.764C163.191 179.713 163.376 179.662 163.565 179.609C164.665 179.315 165.732 179.131 166.866 179.033C167.42 178.981 167.42 178.981 168.214 178.75C174.564 177.126 181.965 177.671 188.179 179.461C188.585 179.557 188.585 179.557 188.999 179.654C192.588 180.537 195.99 182.448 198.835 184.789C199.035 184.952 199.235 185.115 199.44 185.283C203.335 188.625 207.057 193.633 207.611 198.892C207.806 202.337 207.363 204.927 205.213 207.718C204.89 208.039 204.89 208.039 204.406 208.039C204.506 208.269 204.606 208.499 204.708 208.736C204.807 208.967 204.807 208.967 204.906 209.204C205.065 209.577 205.229 209.949 205.396 210.318C206.04 211.799 206.454 212.991 205.941 214.593C205.056 216.618 203.456 217.596 201.479 218.433C200.292 218.875 199.106 219.166 197.867 219.422C197.619 219.476 197.619 219.476 197.366 219.531C190.766 220.943 183.949 221.378 177.221 221.739C175.762 221.817 174.307 221.916 172.85 222.03C165.115 222.613 157.386 222.61 149.633 222.611C148.737 222.611 147.842 222.612 146.946 222.612C143.807 222.614 140.668 222.616 137.529 222.615C134.625 222.615 131.722 222.618 128.818 222.622C126.304 222.625 123.79 222.626 121.276 222.626C119.784 222.626 118.291 222.627 116.799 222.629C106.148 222.646 106.148 222.646 102.104 222.37C101.854 222.353 101.605 222.337 101.348 222.32C98.7544 222.103 95.2996 221.742 93.2417 220.027C92.426 219.008 92.4027 218.046 92.4178 216.783C92.7266 214.403 94.3749 212.453 95.9058 210.703C96.0617 210.521 96.2174 210.339 96.378 210.151C98.889 207.281 101.606 204.559 104.624 202.227C104.946 201.969 105.266 201.711 105.587 201.453C110.278 197.7 115.384 194.491 120.776 191.843C123.85 190.333 126.861 188.82 129.628 186.791C130.306 186.304 130.998 185.839 131.689 185.371C134.925 183.178 138.148 180.943 141.195 178.492C140.856 177.344 140.367 176.352 139.757 175.329C139.656 175.157 139.554 174.986 139.45 174.809C138.346 172.969 137.156 171.185 135.973 169.395C134.384 166.99 132.829 164.589 131.507 162.024C131.421 161.857 131.335 161.69 131.246 161.518C130.672 160.402 130.106 159.283 129.57 158.149C129.499 158 129.428 157.851 129.355 157.697C128.828 156.538 128.778 155.763 128.843 154.516C126.349 155.455 123.778 156.573 122.546 159.117C122.607 159.987 123.056 160.481 123.606 161.131C128.791 167.452 128.791 167.452 129.204 169.689C129.165 169.876 129.126 170.064 129.085 170.258C128.688 170.51 128.283 170.751 127.875 170.984C127.428 171.629 127.428 171.629 127.042 172.408C125.712 174.866 124.123 177.156 122.546 179.461C122.423 179.642 122.299 179.823 122.172 180.009C120.271 182.773 118.247 185.44 116.201 188.097C115.826 188.586 115.453 189.076 115.082 189.568C113.01 192.31 110.758 194.887 108.419 197.404C107.925 197.944 107.443 198.489 106.964 199.043C104.722 201.614 102.266 204.049 99.5386 206.102C99.4148 206.197 99.2908 206.292 99.1632 206.391C94.5984 209.885 90.146 212.039 84.2807 211.43C83.1337 211.169 82.166 210.776 81.1323 210.219C80.9163 210.107 80.7002 209.996 80.4777 209.88C77.3806 208.096 74.7933 205.297 72.6557 202.469C72.431 202.183 72.431 202.183 72.2019 201.891C71.2026 200.603 71.2026 200.603 71.2026 200.047C71.043 200.047 70.8832 200.047 70.7182 200.047C70.7597 200.194 70.8008 200.342 70.8432 200.494C71.1711 201.68 71.4867 202.868 71.781 204.063C72.1731 205.655 72.5778 207.243 73.004 208.826C73.0696 209.079 73.0696 209.079 73.1367 209.337C73.9619 212.355 75.4336 215.171 76.7678 217.988C76.8935 218.257 77.0192 218.526 77.1486 218.802C77.2626 219.044 77.3767 219.285 77.4942 219.534C77.7417 220.149 77.7417 220.149 77.7417 220.875C76.1987 220.994 76.1987 220.994 75.5477 220.486C74.988 219.796 74.7151 219.153 74.3985 218.323C74.3392 218.169 74.2801 218.016 74.2188 217.858C74.0282 217.361 73.8413 216.863 73.655 216.365C73.5245 216.021 73.3942 215.678 73.2636 215.334C71.842 211.576 70.5826 207.858 69.7495 203.922C69.6715 203.569 69.6715 203.569 69.5916 203.209C69.3581 202.067 69.2581 200.996 69.2457 199.829C69.207 197.996 68.8771 196.884 67.6853 195.454C66.968 194.575 66.37 193.652 65.7687 192.691C65.589 192.405 65.589 192.405 65.4056 192.113C62.7757 187.893 60.2814 183.574 57.8823 179.219C57.7782 179.031 57.674 178.843 57.5667 178.649C55.6556 175.194 53.8153 171.705 52.016 168.191C51.5951 167.371 51.1698 166.553 50.7446 165.735C48.5041 161.386 46.5918 156.925 44.7758 152.385C44.6301 152.021 44.4835 151.658 44.336 151.295C43.4046 149.001 42.5942 146.756 42.0646 144.329C42.0069 144.078 41.9493 143.827 41.8899 143.569C41.7277 142.859 41.5705 142.148 41.4136 141.438C41.3448 141.138 41.3448 141.138 41.2743 140.832C39.8495 134.623 40.4729 128.795 43.5932 123.274C43.7957 122.915 43.7957 122.915 44.0021 122.549C46.2895 118.755 49.5656 115.561 53.0386 112.859C53.1805 112.749 53.3222 112.639 53.4682 112.525C57.0235 109.766 60.782 107.393 64.6747 105.142C65.1303 104.878 65.5831 104.61 66.0356 104.34C66.4279 104.106 66.4279 104.106 66.8282 103.869C67.0552 103.733 67.2821 103.598 67.516 103.458C68.0544 103.172 68.0544 103.172 68.5386 103.172C68.5487 102.867 68.5587 102.563 68.5691 102.249C68.7657 100.494 69.6473 98.7789 70.9454 97.5716C71.7836 97.0582 72.4165 96.987 73.3823 96.8751C73.4438 96.6119 73.5053 96.3484 73.5688 96.0769C73.6088 95.9061 73.6487 95.7354 73.6899 95.5595C73.7785 95.181 73.8669 94.8025 73.9551 94.4237C74.1953 93.3985 74.4521 92.3813 74.7296 91.3653C74.8512 90.8623 74.9667 90.3574 75.0776 89.8517C75.1113 89.7003 75.1447 89.5489 75.1791 89.393C76.1747 84.6274 75.8715 79.6764 75.8042 74.836C75.499 74.7634 75.1939 74.6905 74.8795 74.6154C72.2443 73.986 70.2281 72.0262 68.8319 69.7797C67.8658 68.0599 67.5289 66.8804 67.5398 64.9064C67.5388 64.7342 67.5378 64.5617 67.5369 64.3842C67.5383 63.5562 67.5524 62.7916 67.812 62.0001C67.5722 61.9202 67.3325 61.8405 67.0854 61.7579C66.6815 61.2612 66.3133 60.77 65.9503 60.2443C65.8435 60.0917 65.7369 59.9391 65.627 59.7817C62.0402 54.602 59.3352 49.3412 60.062 42.8673C61.0106 38.7223 64.4112 35.3893 67.8752 33.19C69.8655 31.9982 72.2198 30.881 74.5535 30.6768C75.5993 30.5542 76.3171 30.1542 77.212 29.5925C78.6363 28.7315 80.0291 28.121 81.6167 27.6095C81.831 27.5281 82.0451 27.4467 82.2658 27.3627C87.5074 25.4242 93.4132 25.3981 98.812 26.6407C99.0489 26.6904 99.2855 26.74 99.5291 26.7914C101.876 27.3453 104.229 28.4276 106.214 29.7892C107.214 30.3709 107.405 30.2476 108.499 30.0314C112.252 29.7875 115.037 30.4094 117.945 32.9376C120.466 35.3353 122.266 38.3188 122.41 41.8533C122.31 45.2315 120.9 47.4875 118.578 49.783C118.187 50.1329 118.187 50.1329 117.46 50.6173C120.542 49.1223 122.162 47.4807 123.515 44.3204C124.296 41.9785 124.001 38.9177 122.922 36.7409C122.798 36.5249 122.674 36.3089 122.546 36.0861C122.415 35.8552 122.284 35.6242 122.148 35.3861C120.172 32.1212 117.472 29.6073 113.838 28.2794C112.531 27.9587 111.18 28.0946 109.847 28.1394C107.488 28.2142 106.193 28.0425 104.235 26.6824C103.291 26.0331 102.272 25.6904 101.189 25.3392C101.016 25.2816 100.843 25.2239 100.665 25.1644C98.0075 24.3206 95.4165 24.1205 92.6362 24.1283C92.3805 24.1283 92.3805 24.1283 92.1194 24.1283C89.3296 24.1368 86.7179 24.378 84.0386 25.1876C83.8707 25.237 83.7026 25.2862 83.5295 25.3368C81.7588 25.8636 80.1079 26.5163 78.4682 27.3673C78.2285 27.3673 77.9887 27.3673 77.7417 27.3673C77.6511 26.8376 77.6511 26.8376 77.7417 26.1564C81.0509 22.579 88.023 21.9379 92.5607 21.9636Z" fill="#030304"/>
<path d="M104.624 102.929C112.454 102.659 118.734 104.778 124.631 110.031C125.981 111.328 127.05 112.779 128.116 114.312C128.331 114.568 128.331 114.568 128.55 114.829C128.647 114.978 128.743 115.127 128.843 115.281C128.54 116.19 128.221 116.324 127.435 116.855C121.638 120.96 117.171 126.839 115.85 133.891C115.71 134.748 115.624 135.608 115.538 136.472C115.069 141.035 113.36 144.441 110.437 147.976C109.701 147.701 109.169 147.449 108.529 146.977C107.613 146.427 107.13 146.37 106.077 146.523C105.296 147.026 104.899 147.443 104.382 148.218C103.943 148.284 103.943 148.284 103.413 148.309C101.594 148.677 100.755 150.415 99.7805 151.851C99.5276 152.213 99.2743 152.576 99.0207 152.938C97.7015 154.834 96.4218 156.756 95.1639 158.693C95.0571 158.857 94.9503 159.021 94.8403 159.191C94.192 160.198 93.5851 161.22 92.9992 162.265C92.4616 161.591 92.0774 160.939 91.728 160.151C91.6263 159.925 91.5243 159.698 91.4194 159.465C91.3104 159.22 91.2015 158.975 91.0891 158.723C89.7575 155.777 88.3492 152.875 86.9036 149.984C86.5062 149.188 86.1121 148.391 85.7181 147.594C84.0475 144.235 82.2495 140.977 80.3248 137.757C79.7436 136.779 79.1737 135.793 78.6041 134.808C78.1035 133.965 77.5607 133.163 76.9846 132.37C76.887 132.231 76.7891 132.093 76.6884 131.95C76.0589 131.075 75.4043 130.282 74.593 129.57C73.8153 129.468 73.8153 129.468 73.1398 129.57C73.2948 130.413 73.63 130.982 74.1067 131.69C74.2561 131.914 74.4058 132.139 74.5598 132.37C74.7206 132.61 74.8814 132.85 75.0471 133.096C76.5825 135.417 78.0245 137.769 79.3876 140.194C79.6581 140.673 79.932 141.15 80.2078 141.627C83.0206 146.516 85.542 151.579 87.9133 156.695C87.9842 156.848 88.0554 157 88.1286 157.158C88.6025 158.179 89.0736 159.201 89.5415 160.225C89.6963 160.564 89.8515 160.902 90.0075 161.239C90.2254 161.713 90.441 162.187 90.6558 162.661C90.781 162.935 90.906 163.209 91.0348 163.492C91.4025 164.463 91.3831 164.995 90.9566 165.942C90.7968 166.246 90.635 166.55 90.4713 166.852C90.2935 167.19 90.1157 167.527 89.938 167.865C89.8445 168.04 89.751 168.216 89.6549 168.397C85.589 175.501 85.589 175.501 84.0383 183.335C84.4379 183.335 84.8375 183.335 85.2492 183.335C85.3391 183.055 85.4292 182.776 85.5217 182.488C89.3889 171.01 95.7178 160.55 102.929 150.882C103.96 151.029 104.737 151.627 105.578 152.199C105.739 152.308 105.899 152.416 106.065 152.528C108.89 154.456 111.5 156.621 114.07 158.874C114.287 159.064 114.504 159.254 114.728 159.449C117.56 161.959 120.065 164.683 122.455 167.608C122.589 167.771 122.722 167.934 122.859 168.102C123.118 168.421 123.375 168.741 123.63 169.063C123.876 169.375 124.127 169.682 124.382 169.985C124.731 170.423 124.731 170.423 125.21 171.226C124.95 172.149 124.461 172.896 123.933 173.69C123.775 173.929 123.616 174.167 123.453 174.413C123.199 174.791 123.199 174.791 122.94 175.176C122.766 175.437 122.591 175.697 122.412 175.964C121.194 177.771 119.928 179.529 118.603 181.258C117.968 182.087 117.364 182.935 116.764 183.789C114.679 186.738 112.432 189.569 110.078 192.307C109.488 192.999 108.917 193.705 108.348 194.415C107.495 195.464 106.585 196.417 105.617 197.358C105.161 197.814 104.748 198.28 104.336 198.775C100.21 203.543 94.0956 208.727 87.6011 209.382C84.0719 209.579 81.3992 208.053 78.8228 205.772C76.7128 203.843 74.9715 201.671 73.2881 199.369C72.9073 198.849 72.5223 198.332 72.136 197.816C68.4416 192.837 65.2879 187.516 62.2414 182.124C62.0498 181.787 61.858 181.451 61.6662 181.114C61.232 180.35 60.804 179.582 60.3773 178.814C60.0063 178.15 59.6306 177.489 59.2557 176.827C54.0712 167.621 49.4309 158.136 45.7727 148.218C45.6724 147.95 45.6724 147.95 45.5704 147.676C43.1241 141.059 41.6262 133.086 44.5358 126.409C45.4854 124.354 46.692 122.547 48.1945 120.851C48.3694 120.65 48.5442 120.449 48.7244 120.242C49.2657 119.629 49.8167 119.027 50.3742 118.429C50.5404 118.25 50.7065 118.071 50.8775 117.886C52.3076 116.398 53.8913 115.147 55.5306 113.901C55.9019 113.618 56.2703 113.33 56.6379 113.042C59.8174 110.587 63.2458 108.477 66.7219 106.471C67.0798 106.261 67.0798 106.261 67.445 106.047C67.6683 105.92 67.8919 105.794 68.122 105.663C68.3196 105.55 68.517 105.437 68.7204 105.32C69.3627 105.071 69.6008 105.101 70.2336 105.351C70.8594 105.681 71.4777 106.02 72.0955 106.365C74.0069 107.405 75.9373 108.167 78.0054 108.832C78.4295 108.971 78.8501 109.12 79.2701 109.27C80.6743 109.77 82.0344 110.108 83.5103 110.318C84.1574 110.418 84.7825 110.547 85.4214 110.688C86.705 110.948 87.939 110.993 89.2453 110.982C89.4567 110.984 89.6679 110.985 89.8859 110.987C91.3802 110.983 92.7568 110.773 94.2102 110.437C94.5829 110.36 94.5829 110.36 94.9631 110.282C98.2067 109.533 101.992 108.211 103.928 105.321C104.381 104.551 104.502 103.809 104.624 102.929Z" fill="#FEFEFE"/>
<path d="M88.1562 48.6797C89.1378 48.8163 89.7498 49.12 90.5631 49.6787C94.4701 52.2258 98.9421 54.1173 103.676 53.1815C105.426 52.7487 107.006 52.1127 108.375 50.916C108.742 50.6172 108.742 50.6172 109.469 50.375C109.469 50.2152 109.469 50.0553 109.469 49.8906C109.709 49.9705 109.948 50.0505 110.195 50.1328C111.239 52.6695 111.698 55.6375 111.648 58.3672C111.433 58.3682 111.433 58.3682 111.212 58.3691C109.267 58.4599 107.475 59.1497 106.078 60.5469C106.155 61.0574 106.155 61.0574 106.32 61.5156C107.165 61.4127 107.801 61.2604 108.576 60.8951C109.649 60.4766 110.514 60.4774 111.648 60.5469C112.536 62.2492 112.402 63.9971 112.375 65.875C112.135 65.875 111.895 65.875 111.648 65.875C111.688 66.0649 111.728 66.2545 111.77 66.4502C111.87 67.177 111.93 67.8677 111.951 68.5996C111.961 68.9086 111.961 68.9086 111.97 69.224C111.931 69.4843 111.931 69.4843 111.891 69.75C111.156 70.2399 110.982 70.3056 110.15 70.3099C109.977 70.3141 109.803 70.3182 109.625 70.3223C108.542 70.1736 107.446 69.9987 106.725 69.1121C106.456 68.6279 106.232 68.1416 106.018 67.6309C105.865 67.2937 105.713 66.9571 105.56 66.6205C105.451 66.3749 105.451 66.3749 105.34 66.1242C104.985 65.3674 104.566 64.6566 104.141 63.9375C103.821 63.9375 103.501 63.9375 103.172 63.9375C103.293 65.4209 103.784 66.542 104.428 67.873C105.947 71.1293 107.773 75.2946 107.773 78.9531C108.493 78.8332 108.493 78.8332 109.227 78.7109C109.32 77.083 108.995 75.8001 108.485 74.2607C108.344 73.8304 108.205 73.3998 108.068 72.9684C108.005 72.7805 107.943 72.5923 107.879 72.3986C107.773 71.9297 107.773 71.9297 108.016 71.4453C108.2 71.5652 108.385 71.6851 108.576 71.8086C109.779 72.2981 110.851 72.2334 112.133 72.1719C112.235 74.0757 111.906 75.8497 111.516 77.7022C111.443 78.0498 111.373 78.3978 111.304 78.7461C110.349 83.5903 108.233 88.3025 104.141 91.3047C101.638 92.8094 99.1581 93.5052 96.2611 92.7881C90.0971 90.713 85.6937 86.1594 82.8424 80.4326C81.6242 77.9253 80.8419 75.3549 80.1641 72.6563C80.0287 72.6625 79.8935 72.6688 79.754 72.6754C74.8405 72.8757 74.8405 72.8757 73.1406 71.4453C72.8858 71.2654 72.6311 71.0857 72.3685 70.9004C70.5374 69.1099 69.4986 67.0985 69.3867 64.543C69.4226 63.071 69.7314 62.1238 70.7188 61.0313C71.9772 59.8649 72.99 59.4473 74.6921 59.4873C76.2656 59.7147 77.4346 60.8041 78.4072 62.0048C78.9296 62.8295 79.1946 63.7244 79.4375 64.6641C80.7969 64.4391 81.8335 64.2359 82.8281 63.2109C83.336 62.3989 83.4021 61.6755 83.4639 60.7285C83.482 60.4674 83.5002 60.2066 83.5188 59.9375C83.5307 59.7392 83.5426 59.5406 83.5547 59.3359C83.6896 59.2829 83.8245 59.2299 83.9635 59.1751C86.0662 58.3013 87.7206 57.3449 88.6784 55.196C89.3146 53.0049 88.9664 50.7727 88.1562 48.6797Z" fill="#FEFEFE"/>
<path d="M138.773 113.102C138.869 114.448 138.693 115.125 137.911 116.22C137.643 116.595 137.643 116.595 137.37 116.978C137.194 117.217 137.018 117.456 136.836 117.703C136.697 117.905 136.558 118.107 136.415 118.315C135.39 119.746 134.197 120.642 132.719 121.578C132.304 121.844 131.89 122.112 131.478 122.38C131.297 122.494 131.117 122.608 130.931 122.726C130.802 122.827 130.672 122.927 130.539 123.031C130.539 123.191 130.539 123.351 130.539 123.516C131.997 123.401 133.283 123.047 134.673 122.603C136.011 122.178 137.363 121.806 138.714 121.425C139.834 121.107 140.951 120.781 142.064 120.435C142.281 120.368 142.499 120.301 142.723 120.232C143.137 120.103 143.55 119.973 143.963 119.841C145.011 119.517 145.896 119.323 147.008 119.398C147.354 119.948 147.492 120.296 147.492 120.951C147.189 121.736 146.792 121.914 146.048 122.263C145.88 122.336 145.712 122.41 145.54 122.486C145.185 122.653 144.832 122.821 144.478 122.989C144.296 123.075 144.113 123.161 143.925 123.249C140.318 124.912 140.318 124.912 137.32 127.391C137.249 128.029 137.249 128.029 137.32 128.602C138.14 128.291 138.887 127.936 139.643 127.494C139.851 127.373 140.06 127.252 140.275 127.127C140.493 126.999 140.712 126.871 140.938 126.74C142.467 125.858 143.996 124.981 145.57 124.182C145.827 124.051 146.085 123.919 146.35 123.784C147.008 123.516 147.008 123.516 147.977 123.516C148.181 124.845 147.696 125.55 146.957 126.591C146.411 127.293 145.83 127.952 145.219 128.597C144.304 129.742 143.921 131.053 143.542 132.446C142.052 137.646 139.946 142.423 136.352 146.523C136.178 146.724 136.005 146.924 135.826 147.131C133.333 149.815 130.071 151.435 126.801 152.972C124.606 154.021 122.828 155.249 121.336 157.18C121.097 157.425 120.855 157.668 120.609 157.906C119.802 157.099 118.995 156.292 118.188 155.484C117.984 155.282 117.781 155.079 117.572 154.87C117.186 154.483 116.803 154.094 116.422 153.702C114.992 152.238 113.498 150.937 111.891 149.672C112.138 149.283 112.385 148.895 112.632 148.506C112.787 148.262 112.941 148.018 113.101 147.767C113.407 147.288 113.717 146.812 114.033 146.34C115.963 143.43 116.936 140.537 117.188 137.078C117.752 130.626 120.293 126.042 124.727 121.336C124.872 121.175 125.017 121.014 125.166 120.849C127.496 118.369 130.361 116.638 133.324 115.024C133.573 114.888 133.821 114.753 134.078 114.613C135.647 113.778 136.967 113.102 138.773 113.102Z" fill="#FEFEFE"/>
<path d="M139.5 145.555C139.774 146.093 140.034 146.634 140.282 147.186C142.034 150.966 145 152.722 148.758 154.21C150.818 154.899 152.693 155.082 154.864 155.076C155.122 155.08 155.381 155.084 155.648 155.087C157.127 155.088 158.387 154.942 159.787 154.453C160.366 154.261 160.939 154.14 161.539 154.031C161.816 161.861 160.227 171.533 154.758 177.523C152.745 179.404 150.492 180.784 147.734 181.156C147.448 181.203 147.448 181.203 147.156 181.252C146.562 181.31 146.133 181.302 145.555 181.156C145.238 180.81 145.238 180.81 144.972 180.343C144.87 180.166 144.768 179.989 144.663 179.807C144.212 178.975 143.766 178.141 143.327 177.302C141.591 173.992 139.607 170.902 137.536 167.798C136.043 165.551 134.646 163.255 133.324 160.903C133.222 160.722 133.12 160.541 133.014 160.355C131.927 158.39 131.927 158.39 131.75 157.422C131.946 156.755 132.147 156.222 132.446 155.605C132.525 155.436 132.604 155.267 132.686 155.093C132.933 154.574 133.188 154.06 133.445 153.547C133.518 153.397 133.592 153.246 133.667 153.092C134.831 150.735 136.361 148.986 138.187 147.129C138.659 146.63 139.082 146.099 139.5 145.555Z" fill="#FEFEFE"/>
<path d="M155.484 110.195C155.644 110.435 155.804 110.675 155.969 110.922C156.628 111.854 157.049 112.302 158.148 112.617C158.735 112.65 159.317 112.649 159.904 112.647C162.641 112.648 164.199 113.088 166.383 114.797C167.351 115.592 167.351 115.592 168.532 115.705C168.702 115.645 168.872 115.585 169.047 115.523C168.602 117.365 168.157 119.198 167.579 121.003C166.907 123.137 166.458 125.292 166.186 127.512C165.758 130.317 164.34 132.703 162.992 135.156C162.865 135.389 162.738 135.622 162.606 135.862C162.095 136.797 161.584 137.731 161.045 138.65C159.815 140.935 159.782 143.38 159.678 145.925C159.592 146.598 159.411 147.124 159.117 147.734C157.258 148.926 154.163 148.758 152.053 148.362C149.952 147.862 148.056 147.038 146.281 145.797C146.372 145.417 146.469 145.039 146.569 144.661C146.622 144.451 146.676 144.24 146.731 144.023C147.234 142.847 147.937 142.286 149.1 141.784C149.258 141.724 149.417 141.665 149.58 141.603C152.27 140.55 153.101 138.793 154.226 136.252C154.718 135.188 155.3 134.176 155.878 133.158C156.083 132.791 156.288 132.424 156.493 132.058C156.713 131.665 156.713 131.665 156.938 131.266C157.337 131.266 157.737 131.266 158.148 131.266C158.228 130.866 158.308 130.466 158.391 130.055C156.462 129.026 154.613 128.168 152.492 127.59C151.852 127.391 151.852 127.391 151.125 126.906C151.079 126.028 151.079 126.028 151.125 125.211C154.73 125.061 157.782 125.624 160.996 127.264C161.684 127.587 162.245 127.771 162.992 127.875C163.112 127.395 163.112 127.395 163.234 126.906C161.697 125.872 160.124 125.136 158.391 124.484C158.232 124.424 158.073 124.363 157.91 124.3C156.448 123.772 155.011 123.555 153.471 123.38C153.003 123.325 152.534 123.27 152.066 123.212C151.76 123.177 151.76 123.177 151.447 123.141C150.865 123.028 150.429 122.837 149.914 122.547C149.908 122.189 149.903 121.83 149.899 121.472C149.896 121.273 149.893 121.073 149.89 120.868C149.914 120.367 149.914 120.367 150.156 120.125C155.269 119.885 160.204 120.717 164.452 123.774C165.092 124.077 165.476 123.951 166.141 123.758C165.911 122.912 165.709 122.586 164.995 122.056C160.757 119.714 156.574 118.4 151.755 117.846C151.05 117.686 150.676 117.475 150.156 116.977C150.065 116.356 150.065 116.356 150.156 115.766C151.138 114.784 152.553 114.973 153.865 114.964C158.372 114.964 162.365 116.598 165.918 119.338C166.392 119.707 166.392 119.707 167.109 119.641C167.187 118.77 167.187 118.77 166.813 118.009C163.151 114.876 158.543 113.419 153.789 113.102C154.767 111.056 154.767 111.056 155.484 110.195Z" fill="#FEFEFE"/>
<path d="M175.828 92.7578C175.684 93.6156 175.457 94.3262 175.082 95.1097C174.977 95.3286 174.873 95.5476 174.765 95.773C174.594 96.1237 174.594 96.1237 174.421 96.4814C174.244 96.8476 174.244 96.8476 174.064 97.2211C172.871 99.6754 171.614 102.095 170.334 104.504C170.047 105.05 169.766 105.599 169.49 106.15C169.413 106.299 169.337 106.449 169.258 106.603C169.065 106.981 168.874 107.361 168.684 107.741C168.32 108.258 168.32 108.258 167.856 108.484C167.223 108.504 166.871 108.345 166.307 108.061C164.395 107.11 162.773 106.97 160.661 106.986C160.413 106.984 160.165 106.983 159.91 106.981C159.67 106.981 159.43 106.982 159.183 106.982C158.859 106.983 158.859 106.983 158.528 106.984C157.844 107.053 157.319 107.249 156.695 107.531C156.777 107.4 156.858 107.269 156.942 107.133C157.997 105.405 158.962 103.635 159.914 101.849C160.18 101.349 160.448 100.85 160.717 100.351C160.887 100.032 161.057 99.7139 161.227 99.3952C161.307 99.2465 161.387 99.0976 161.47 98.9443C161.891 98.1932 161.891 98.1932 162.023 97.3594C161.559 97.3884 161.559 97.3884 161.055 97.6016C160.664 98.1329 160.664 98.1329 160.346 98.8173C160.215 99.077 160.084 99.3366 159.948 99.604C159.809 99.8873 159.669 100.17 159.526 100.462C159.303 100.906 159.078 101.349 158.854 101.793C158.697 102.101 158.542 102.41 158.386 102.719C157.524 104.429 156.619 106.117 155.712 107.804C155.487 108.223 155.487 108.223 155.257 108.65C154.457 110.141 153.648 111.626 152.82 113.102C152.341 113.102 151.861 113.102 151.367 113.102C151.765 111.713 152.419 110.496 153.093 109.227C153.281 108.869 153.281 108.869 153.473 108.505C153.823 107.841 154.174 107.177 154.527 106.514C154.768 106.059 155.009 105.603 155.25 105.147C155.677 104.339 156.105 103.532 156.533 102.726C156.7 102.411 156.866 102.097 157.033 101.783C157.812 100.312 158.599 98.8447 159.429 97.402C159.539 97.2109 159.649 97.0201 159.762 96.8232C160.086 96.3906 160.086 96.3906 160.812 96.1484C161.074 96.1538 161.335 96.1591 161.604 96.1644C162.562 96.1475 163.226 95.9629 164.128 95.649C166.85 94.7399 169.647 94.0998 172.434 93.4216C173.054 93.2691 173.673 93.1107 174.292 92.9499C175.102 92.7578 175.102 92.7578 175.828 92.7578Z" fill="#FEFEFE"/>
<path d="M72.6562 99.0547C73.8686 99.4386 75.043 99.8585 76.2135 100.356C80.5276 102.175 84.7082 103.452 89.4127 103.475C89.7978 103.482 89.7978 103.482 90.1906 103.49C92.7009 103.502 94.9474 102.97 97.2383 101.961C97.5156 101.841 97.7926 101.721 98.0784 101.598C98.7166 101.282 99.2199 100.938 99.7812 100.508C100.558 100.508 100.804 100.799 101.386 101.325C102.4 102.446 102.4 102.446 102.551 103.247C102.362 104.408 101.649 105.044 100.742 105.716C95.5565 109.026 89.0121 109.636 83.0553 108.364C82.3258 108.19 81.6085 107.99 80.8906 107.773C80.694 107.715 80.4971 107.656 80.2946 107.596C76.9311 106.569 73.4245 105.239 70.7188 102.93C71.0445 101.355 71.4904 100.221 72.6562 99.0547Z" fill="#FEFEFE"/>
<path d="M149.188 126.18C149.267 126.18 149.347 126.18 149.43 126.18C149.512 126.569 149.512 126.569 149.596 126.967C149.968 128.028 150.199 128.236 151.125 128.844C151.863 129.153 152.616 129.394 153.38 129.631C153.684 129.728 153.684 129.728 153.994 129.828C154.49 129.986 154.987 130.142 155.484 130.297C155.42 130.422 155.357 130.547 155.291 130.676C154.997 131.272 154.719 131.874 154.441 132.477C154.133 133.139 153.814 133.796 153.494 134.453C153.329 134.797 153.167 135.143 153.01 135.491C151.953 137.814 151.062 139.125 148.607 140.144C148.319 140.251 148.031 140.358 147.734 140.469C147.211 140.694 146.688 140.92 146.166 141.147C145.67 141.351 145.174 141.554 144.677 141.755C144.174 141.961 143.671 142.167 143.169 142.373C142.952 142.461 142.735 142.549 142.512 142.64C141.98 142.866 141.466 143.11 140.953 143.375C141.314 142.423 141.754 141.537 142.225 140.635C143.435 138.25 144.376 135.809 145.007 133.209C145.559 130.965 146.368 129.577 147.977 127.875C148.225 127.542 148.469 127.204 148.703 126.861C148.863 126.636 149.023 126.411 149.188 126.18Z" fill="#FEFEFE"/>
<path d="M142.407 144.828C142.654 145.04 142.901 145.252 143.148 145.464C143.306 145.598 143.464 145.731 143.627 145.869C143.911 146.115 144.19 146.368 144.456 146.633C147.147 149.225 150.811 150.243 154.425 150.247C154.718 150.253 155.01 150.259 155.312 150.265C157.108 150.271 158.572 150.04 160.252 149.396C160.813 149.188 160.813 149.188 161.297 149.188C161.297 150.067 161.297 150.946 161.297 151.852C158.13 153.755 154.398 153.797 150.819 153.143C147.415 152.269 144.135 150.364 142.119 147.432C141.762 146.801 141.679 146.57 141.695 145.827C141.922 145.312 141.922 145.312 142.407 144.828Z" fill="#F5F5F5"/>
<path d="M74.1847 27.0938C74.3872 27.096 74.5897 27.0981 74.7982 27.1003C75.2952 27.1061 75.7919 27.1149 76.2889 27.1241C76.2889 28.0928 76.2889 28.0928 76.0191 28.5053C75.3761 28.9472 74.8389 28.9405 74.0637 29.001C69.504 29.575 65.3938 32.3679 62.4842 35.8428C61.0524 37.6989 60.0165 39.6488 59.3357 41.8975C59.195 42.3165 59.0538 42.7352 58.9119 43.1537C58.8104 43.4615 58.7095 43.7691 58.6092 44.0772C58.4493 44.0772 58.2895 44.0772 58.1248 44.0772C57.4489 42.7258 57.715 40.596 58.0936 39.1586C59.9226 34.5471 63.7537 30.8969 68.0545 28.5772C68.9295 28.204 69.814 27.9012 70.7186 27.6084C70.9859 27.4774 70.9859 27.4774 71.2586 27.3435C72.2349 27.024 73.1651 27.073 74.1847 27.0938Z" fill="#030304"/>
<path d="M141.922 180.43C143.25 180.957 143.661 182.106 144.313 183.306C144.504 183.637 144.504 183.637 144.698 183.975C144.815 184.188 144.932 184.401 145.053 184.621C145.161 184.815 145.269 185.01 145.381 185.211C145.555 185.758 145.555 185.758 145.374 186.298C145.07 186.727 145.07 186.727 144.586 186.969C144.235 186.99 143.882 186.997 143.53 186.996C143.203 186.996 143.203 186.996 142.869 186.996C142.633 186.995 142.398 186.994 142.155 186.992C141.913 186.992 141.672 186.992 141.424 186.991C140.651 186.99 139.879 186.987 139.106 186.984C138.584 186.983 138.061 186.982 137.538 186.981C136.254 186.978 134.971 186.974 133.688 186.969C134.365 186.272 135.02 185.628 135.824 185.08C135.992 184.964 136.16 184.848 136.334 184.728C136.51 184.609 136.685 184.489 136.866 184.365C139.513 182.546 139.513 182.546 141.922 180.43Z" fill="#FEFEFE"/>
<path d="M162.992 108.5C165.4 109.055 167.384 110.34 169.198 111.981C169.685 112.911 169.612 113.769 169.531 114.797C169.291 114.917 169.291 114.917 169.047 115.039C168.937 114.869 168.827 114.699 168.714 114.524C167.825 113.55 166.814 112.99 165.656 112.375C165.48 112.276 165.303 112.178 165.122 112.076C163.545 111.314 161.976 111.284 160.253 111.286C158.997 111.268 158.343 111.137 157.422 110.195C157.497 109.62 157.497 109.62 157.664 108.984C159.119 108.014 161.298 108.331 162.992 108.5Z" fill="#F5F5F5"/>
<path d="M155.484 110.195C155.644 110.435 155.804 110.675 155.969 110.922C156.628 111.854 157.049 112.302 158.148 112.617C158.735 112.65 159.317 112.649 159.904 112.647C162.641 112.648 164.199 113.088 166.383 114.797C167.093 115.367 167.093 115.367 167.836 115.766C168.236 115.686 168.635 115.606 169.047 115.523C168.727 116.802 168.408 118.081 168.078 119.398C167.838 119.398 167.599 119.398 167.352 119.398C167.307 119.229 167.262 119.059 167.215 118.884C166.058 116.569 162.476 115.006 160.121 114.211C158.037 113.646 155.944 113.246 153.789 113.102C154.767 111.056 154.767 111.056 155.484 110.195Z" fill="#F5F5F5"/>
<path d="M106.562 147.977C107.325 148.063 107.787 148.358 108.371 148.838C108.528 148.965 108.685 149.093 108.846 149.224C109.012 149.362 109.177 149.5 109.348 149.642C109.52 149.784 109.693 149.926 109.87 150.072C111.273 151.236 112.623 152.446 113.951 153.695C114.333 154.05 114.719 154.4 115.106 154.749C117.441 156.86 119.528 159.124 121.503 161.578C121.904 162.07 122.307 162.555 122.72 163.037C122.885 163.23 122.885 163.23 123.053 163.427C123.362 163.79 123.673 164.151 123.984 164.511C124.452 165.129 124.726 165.652 124.969 166.383C124.171 165.597 123.401 164.793 122.643 163.97C121.236 162.445 119.804 160.95 118.339 159.48C118.184 159.324 118.028 159.168 117.868 159.007C116.804 157.945 115.697 156.946 114.555 155.969C114.4 155.836 114.246 155.702 114.086 155.565C111.469 153.322 108.695 150.98 105.594 149.43C105.873 148.832 106.09 148.449 106.562 147.977Z" fill="#F5F5F5"/>
<path d="M160.328 96.1484C160.814 96.2179 161.299 96.2984 161.781 96.3906C161.781 96.6304 161.781 96.8702 161.781 97.1172C161.647 97.2434 161.513 97.3695 161.375 97.4994C160.545 98.3647 160.092 99.3819 159.556 100.447C159.301 100.946 159.045 101.444 158.789 101.942C158.65 102.214 158.51 102.486 158.367 102.765C157.592 104.27 156.796 105.763 156.001 107.256C155.731 107.765 155.461 108.275 155.191 108.784C155.021 109.103 154.852 109.422 154.682 109.741C154.533 110.022 154.384 110.302 154.231 110.591C153.773 111.436 153.3 112.269 152.82 113.102C152.341 113.102 151.861 113.102 151.367 113.102C151.765 111.713 152.419 110.496 153.093 109.227C153.218 108.988 153.343 108.75 153.473 108.505C153.823 107.841 154.174 107.177 154.527 106.514C154.768 106.059 155.009 105.603 155.25 105.147C155.677 104.339 156.105 103.532 156.533 102.726C156.7 102.411 156.866 102.097 157.033 101.783C159.669 96.8079 159.669 96.8079 160.328 96.1484Z" fill="#F5F5F5"/>
<path d="M100.75 66.1172C101.341 66.1627 101.341 66.1627 101.961 66.3594C102.738 67.5054 102.559 68.9123 102.446 70.2344C102.151 71.1181 101.9 71.5228 101.22 72.1416C99.8512 72.6657 98.5538 72.5698 97.1782 72.1113C95.9932 71.4732 94.8125 70.8205 93.9692 69.75C93.9087 69.084 93.9087 69.084 93.9692 68.5391C94.3684 68.3669 94.3684 68.3669 94.938 68.2969C95.5984 68.6355 95.5984 68.6355 96.3003 69.1143C96.6495 69.3494 96.6495 69.3494 97.006 69.5892C97.2027 69.7221 97.3993 69.8551 97.6021 69.9922C98.1419 70.262 98.4572 70.2743 99.0552 70.2799C99.31 70.285 99.31 70.285 99.5698 70.2901C100.083 70.2743 100.083 70.2743 100.508 69.75C100.558 68.945 100.558 68.945 100.523 68.0397C100.51 67.4797 100.503 66.9196 100.508 66.3594C100.588 66.2795 100.668 66.1995 100.75 66.1172Z" fill="#030304"/>
<path d="M97.7076 58.518C97.9033 58.5122 98.0988 58.5062 98.3003 58.5001C99.7294 58.4931 100.753 58.8108 101.961 59.5776C102.203 59.8198 102.203 59.8198 102.249 60.41C102.203 61.0307 102.203 61.0307 101.719 61.5151C100.863 61.4374 100.112 61.3025 99.2969 61.0307C98.5461 60.976 97.7943 60.9859 97.0416 60.9854C96.8377 60.9823 96.6335 60.9794 96.4233 60.9762C95.256 60.9736 94.3446 61.0886 93.2422 61.5151C92.5461 61.5454 92.5461 61.5454 92.0312 61.5151C91.9516 61.1954 91.8714 60.8757 91.7891 60.5464C92.0741 60.3109 92.3623 60.0797 92.652 59.8501C92.8922 59.6561 92.8922 59.6561 93.1373 59.4584C94.567 58.5725 96.0767 58.5207 97.7076 58.518Z" fill="#030304"/>
<path d="M98.0851 82.1016C99.0861 82.2273 99.5806 82.5026 100.31 83.1914C101.249 84.0766 101.249 84.0766 102.49 84.3568C103.921 84.2396 104.754 83.7121 105.699 82.6465C105.824 82.4665 105.949 82.2868 106.077 82.1016C106.677 82.2214 106.677 82.2214 107.288 82.3438C107.225 83.244 107.11 83.7153 106.547 84.4326C105.069 85.6273 103.829 86.1614 101.9 86.0863C100.484 85.853 99.4564 85.1485 98.4334 84.1752C98.0158 83.4314 98.0069 82.9417 98.0851 82.1016Z" fill="#0C0C0D"/>
<path d="M182.155 74.3203C182.385 74.3302 182.615 74.3402 182.852 74.3506C183.17 75.4128 183.17 75.4128 182.833 76.0684C182.699 76.2324 182.565 76.3963 182.427 76.5654C182.28 76.7492 182.133 76.9333 181.981 77.1229C181.823 77.3121 181.666 77.501 181.504 77.6959C181.201 78.0706 180.898 78.4455 180.595 78.8206C180.37 79.0941 180.37 79.0941 180.141 79.3728C179.595 80.0563 179.093 80.7673 178.599 81.4891C178.18 81.9328 177.876 82.0088 177.281 82.1006C177.378 79.9231 179.823 74.4136 182.155 74.3203Z" fill="#0C0C0D"/>
<path d="M167.458 74.4883C168.078 74.5944 168.078 74.5944 168.447 75.0814C168.887 75.9714 169.117 76.8382 169.335 77.8033C169.377 77.9855 169.419 78.1678 169.462 78.3558C169.744 79.6297 169.869 80.7946 169.773 82.1022C169.454 82.1022 169.134 82.1022 168.805 82.1022C166.471 77.1579 166.471 77.1579 166.383 75.0787C166.867 74.5944 166.867 74.5944 167.458 74.4883Z" fill="#0C0C0D"/>
<path d="M144.586 116.249C144.666 116.569 144.746 116.889 144.828 117.218C142.931 119.05 140.051 119.403 137.562 119.882C138.593 118.147 139.321 117.116 141.248 116.414C142.362 116.142 143.448 116.172 144.586 116.249Z" fill="#F5F5F5"/>
<path d="M96.6336 94.6953C98.1521 94.6953 99.6707 94.6953 101.235 94.6953C101.235 94.7752 101.235 94.8552 101.235 94.9375C99.9564 94.9375 98.6777 94.9375 97.3602 94.9375C97.3483 95.2465 97.3364 95.5556 97.3243 95.874C97.3062 96.2782 97.2878 96.6827 97.2694 97.0869C97.2582 97.3928 97.2582 97.3928 97.2466 97.7047C97.2325 97.9973 97.2325 97.9973 97.2183 98.2959C97.2108 98.4761 97.203 98.656 97.1953 98.8418C97.118 99.2969 97.118 99.2969 96.6336 99.7812C95.5302 99.6466 95.5302 99.6466 95.1805 99.2969C95.0759 98.099 95.0291 96.9932 95.4982 95.876C95.9071 95.4219 95.9071 95.4219 96.6336 95.1797C96.6336 95.0198 96.6336 94.86 96.6336 94.6953Z" fill="#0C0C0D"/>
<path d="M74.1094 62.4844C74.8696 62.5396 75.2176 62.6144 75.7393 63.1845C75.8558 63.373 75.9723 63.5616 76.0924 63.7559C76.2106 63.9419 76.329 64.1281 76.4508 64.3197C77.0173 65.3499 77.3254 66.1441 77.2578 67.3281C76.8582 67.408 76.4586 67.488 76.0469 67.5703C75.7269 66.991 75.4094 66.4107 75.0931 65.8295C75.0028 65.6665 74.9125 65.5032 74.8195 65.3352C74.355 64.4776 73.9549 63.7161 73.8672 62.7266C73.9471 62.6466 74.027 62.5667 74.1094 62.4844Z" fill="#0C0C0D"/>
<path d="M103.656 202.711C103.306 203.545 102.863 204.009 102.173 204.588C101.91 204.811 101.91 204.811 101.641 205.038C101.507 205.149 101.373 205.26 101.234 205.375C101.075 205.215 100.915 205.055 100.75 204.891C101.142 204.526 101.536 204.163 101.931 203.801C102.15 203.599 102.369 203.396 102.595 203.188C103.172 202.711 103.172 202.711 103.656 202.711Z" fill="#DADBDB"/>
<path d="M122.305 162.992C123.434 163.858 124.179 164.714 124.969 165.898C124.889 166.058 124.809 166.218 124.727 166.383C124.321 165.91 123.918 165.435 123.516 164.96C123.342 164.758 123.342 164.758 123.166 164.552C122.305 163.532 122.305 163.532 122.305 162.992Z" fill="#CDCDCD"/>
<path d="M131.508 152.578C131.668 152.658 131.827 152.738 131.992 152.82C131.393 153.899 131.393 153.899 130.781 155C130.297 154.031 130.297 154.031 130.297 153.305C130.872 152.881 130.872 152.881 131.508 152.578Z" fill="#DADBDB"/>
</g>
<defs>
<clipPath id="clip0_4818_8843">
<rect width="248" height="248" fill="white"/>
</clipPath>
</defs>
</svg>
