<svg width="1648" height="578" viewBox="0 0 1648 578" fill="none" xmlns="http://www.w3.org/2000/svg">
<path d="M373.5 141H326.5V129C326.5 124.582 330.082 121 334.5 121H365.5C369.918 121 373.5 124.582 373.5 129V141Z" fill="black"/>
<path d="M286.582 160H400.582C406.105 160 410.582 164.477 410.582 170V432.264C410.582 437.787 406.105 442.264 400.582 442.264H286.582" stroke="black" stroke-width="35"/>
<path d="M126.583 160.219C146.733 160.219 166.687 163.889 185.304 171.02C203.921 178.151 220.836 188.602 235.085 201.778C249.334 214.954 260.636 230.596 268.348 247.811C276.059 265.026 280.028 283.477 280.028 302.11C280.028 320.743 276.059 339.194 268.347 356.409C260.636 373.624 249.333 389.266 235.084 402.442C220.836 415.617 203.92 426.069 185.303 433.2C166.686 440.33 146.733 444 126.582 444" stroke="black" stroke-width="35" stroke-linejoin="round"/>
<path d="M571.384 454.5V274.5H538.534V233.1H571.384C571.384 179.1 602.734 152.1 665.434 152.1V199.35C657.934 199.35 651.784 199.95 646.984 201.15C642.484 202.05 638.884 203.85 636.184 206.55C633.484 209.25 631.534 212.85 630.334 217.35C629.434 221.55 628.984 226.8 628.984 233.1H666.784V274.5H628.984V454.5H571.384ZM775.547 411.3C811.247 411.3 829.097 388.8 829.097 343.8C829.097 299.1 811.247 276.75 775.547 276.75C739.847 276.75 721.997 299.1 721.997 343.8C721.997 388.8 739.847 411.3 775.547 411.3ZM775.547 460.35C757.547 460.35 741.497 457.5 727.397 451.8C713.297 446.1 701.297 438.15 691.397 427.95C681.797 417.75 674.447 405.45 669.347 391.05C664.247 376.65 661.697 360.9 661.697 343.8C661.697 326.4 664.247 310.5 669.347 296.1C674.747 281.7 682.397 269.4 692.297 259.2C702.197 249 714.047 241.2 727.847 235.8C741.947 230.1 757.847 227.25 775.547 227.25C792.947 227.25 808.547 230.1 822.347 235.8C836.147 241.2 847.847 249 857.447 259.2C867.347 269.1 874.847 281.25 879.947 295.65C885.347 310.05 888.047 326.1 888.047 343.8C888.047 361.5 885.347 377.55 879.947 391.95C874.847 406.05 867.347 418.2 857.447 428.4C847.847 438.6 835.997 446.55 821.897 452.25C808.097 457.65 792.647 460.35 775.547 460.35ZM1034.78 308.7H1089.23V371.7C1089.23 383.4 1087.43 394.65 1083.83 405.45C1080.53 415.95 1075.13 425.4 1067.63 433.8C1060.43 441.9 1051.13 448.35 1039.73 453.15C1028.63 457.95 1015.28 460.35 999.675 460.35C983.475 460.35 969.675 457.95 958.275 453.15C946.875 448.35 937.425 441.9 929.925 433.8C922.725 425.7 917.475 416.25 914.175 405.45C910.875 394.65 909.225 383.25 909.225 371.25V173.25H966.825V233.1H1089.23V274.5H966.825V365.4C966.825 379.5 969.375 390.45 974.475 398.25C979.875 405.75 988.575 409.5 1000.58 409.5C1012.28 409.5 1020.83 405.75 1026.23 398.25C1031.93 390.75 1034.78 380.1 1034.78 366.3V308.7ZM1222.03 411.3C1257.73 411.3 1275.58 388.8 1275.58 343.8C1275.58 299.1 1257.73 276.75 1222.03 276.75C1186.33 276.75 1168.48 299.1 1168.48 343.8C1168.48 388.8 1186.33 411.3 1222.03 411.3ZM1222.03 460.35C1204.03 460.35 1187.98 457.5 1173.88 451.8C1159.78 446.1 1147.78 438.15 1137.88 427.95C1128.28 417.75 1120.93 405.45 1115.83 391.05C1110.73 376.65 1108.18 360.9 1108.18 343.8C1108.18 326.4 1110.73 310.5 1115.83 296.1C1121.23 281.7 1128.88 269.4 1138.78 259.2C1148.68 249 1160.53 241.2 1174.33 235.8C1188.43 230.1 1204.33 227.25 1222.03 227.25C1239.43 227.25 1255.03 230.1 1268.83 235.8C1282.63 241.2 1294.33 249 1303.93 259.2C1313.83 269.1 1321.33 281.25 1326.43 295.65C1331.83 310.05 1334.53 326.1 1334.53 343.8C1334.53 361.5 1331.83 377.55 1326.43 391.95C1321.33 406.05 1313.83 418.2 1303.93 428.4C1294.33 438.6 1282.48 446.55 1268.38 452.25C1254.58 457.65 1239.13 460.35 1222.03 460.35ZM1488.91 300.15C1487.41 289.35 1483.51 281.85 1477.21 277.65C1470.91 273.15 1461.01 270.9 1447.51 270.9C1436.41 270.9 1427.86 272.4 1421.86 275.4C1415.86 278.1 1412.86 282.75 1412.86 289.35C1412.86 295.95 1415.86 301.05 1421.86 304.65C1427.86 307.95 1436.86 311.25 1448.86 314.55C1461.46 318.15 1473.46 321.45 1484.86 324.45C1496.26 327.15 1506.31 330.15 1515.01 333.45C1526.71 338.25 1535.71 344.85 1542.01 353.25C1548.31 361.35 1551.46 372.6 1551.46 387C1551.46 410.1 1543.21 428.1 1526.71 441C1510.51 453.9 1486.51 460.35 1454.71 460.35C1420.51 460.35 1394.26 453.15 1375.96 438.75C1357.96 424.35 1348.66 405.9 1348.06 383.4H1408.36C1408.36 393.9 1412.41 402 1420.51 407.7C1428.61 413.4 1439.86 416.25 1454.26 416.25C1464.76 416.25 1473.91 414.6 1481.71 411.3C1489.51 407.7 1493.41 401.7 1493.41 393.3C1493.41 385.5 1489.81 379.95 1482.61 376.65C1475.71 373.35 1467.46 370.5 1457.86 368.1C1439.26 363.6 1424.26 359.55 1412.86 355.95C1401.46 352.35 1391.86 348 1384.06 342.9C1373.56 336.3 1366.21 328.8 1362.01 320.4C1358.11 312 1356.16 302.85 1356.16 292.95C1356.16 283.65 1357.81 274.95 1361.11 266.85C1364.41 258.75 1369.81 251.85 1377.31 246.15C1384.81 240.15 1394.41 235.5 1406.11 232.2C1418.11 228.9 1432.51 227.25 1449.31 227.25C1481.41 227.25 1504.96 233.4 1519.96 245.7C1535.26 258 1543.66 276.15 1545.16 300.15H1488.91Z" fill="black"/>
</svg>
