<svg width="36" height="36" viewBox="0 0 36 36" fill="none" xmlns="http://www.w3.org/2000/svg">
<path d="M18 16.5008L16.5 5.59283C16.5 4.89383 16.7775 4.22333 17.2725 3.72833C18.8085 2.19233 21.438 3.06833 21.7455 5.21933L24 15.0008L26.262 5.50883C26.4429 4.89524 26.8501 4.37328 27.4013 4.04855C27.9524 3.72383 28.6064 3.62059 29.2308 3.75973C29.8551 3.89886 30.4034 4.26998 30.7645 4.79799C31.1256 5.326 31.2727 5.97148 31.176 6.60383L28.5 24.0008" stroke="black" stroke-width="2" stroke-linecap="round" stroke-linejoin="round"/>
<path d="M28.5 24C27.696 30 23.463 33 17.25 33C11.037 33 6 30 6 24" stroke="black" stroke-width="2"/>
<path d="M6 24V18C6 17.2044 6.31607 16.4413 6.87868 15.8787C7.44129 15.3161 8.20435 15 9 15C9.79565 15 10.5587 15.3161 11.1213 15.8787C11.6839 16.4413 12 17.2044 12 18M18 19.5V16.5C18 15.7044 17.6839 14.9413 17.1213 14.3787C16.5587 13.8161 15.7956 13.5 15 13.5C14.2044 13.5 13.4413 13.8161 12.8787 14.3787C12.3161 14.9413 12 15.7044 12 16.5V22.5" stroke="black" stroke-width="2" stroke-linecap="round" stroke-linejoin="round"/>
<path d="M20.538 25.5H16.5C15.7044 25.5 14.9413 25.1839 14.3787 24.6213C13.8161 24.0587 13.5 23.2956 13.5 22.5C13.5 21.7044 13.8161 20.9413 14.3787 20.3787C14.9413 19.8161 15.7044 19.5 16.5 19.5H22.5C25.815 19.5 29.25 22.5 27.75 27" stroke="black" stroke-width="2" stroke-linecap="round" stroke-linejoin="round"/>
</svg>
